<svg width="101" height="27" viewBox="0 0 101 27" fill="none" xmlns="http://www.w3.org/2000/svg">
<path d="M0.0240021 25.8124L11.5487 0.903992H11.7675L23.2557 25.8124H19.2075L10.6005 5.93198L13.1169 4.44343L3.48871 25.8124H0.0240021ZM6.77106 16.7488H16.5816L17.7487 19.5274H5.74988L6.77106 16.7488Z" fill="black"/>
<path d="M39.9633 24.0261C39.5256 24.2908 38.9299 24.5885 38.1762 24.9193C37.4225 25.25 36.535 25.5257 35.5138 25.7462C34.517 25.9668 33.4229 26.077 32.2315 26.077C30.1891 26.055 28.3413 25.7242 26.688 25.0847C25.059 24.4451 23.6731 23.5741 22.5303 22.4714C21.3876 21.3688 20.5001 20.1008 19.868 18.6674C19.2601 17.2119 18.9562 15.6682 18.9562 14.0363C18.9562 12.25 19.2723 10.6071 19.9044 9.10755C20.5609 7.58593 21.4727 6.2738 22.6397 5.17117C23.8068 4.04649 25.1805 3.17541 26.7609 2.55794C28.3656 1.94046 30.1162 1.63173 32.0127 1.63173C33.5931 1.63173 35.0276 1.8302 36.3162 2.22715C37.6048 2.60204 38.7111 3.05412 39.635 3.58338L38.2127 6.56048C37.4833 6.11943 36.5958 5.70043 35.5503 5.30348C34.5291 4.90654 33.3864 4.70806 32.1221 4.70806C30.8335 4.70806 29.6178 4.93962 28.475 5.40272C27.3323 5.86582 26.3233 6.51638 25.448 7.35437C24.5727 8.19237 23.8797 9.17371 23.3691 10.2984C22.8829 11.401 22.6397 12.5919 22.6397 13.8709C22.6397 15.172 22.8586 16.3849 23.2962 17.5096C23.7582 18.6122 24.4025 19.5715 25.2291 20.3875C26.0801 21.2034 27.1013 21.8429 28.2927 22.306C29.484 22.7691 30.8213 23.0007 32.3044 23.0007C33.6417 23.0007 34.8331 22.8132 35.8785 22.4383C36.924 22.0634 37.7872 21.6445 38.468 21.1813L39.9633 24.0261Z" fill="black"/>
<path d="M37.7873 1.89636H55.2931V4.97269H48.2179V25.8124H44.6802V4.97269H37.7873V1.89636Z" fill="black"/>
<path d="M54.7116 1.89636H58.2492V25.8124H54.7116V1.89636Z" fill="black"/>
<path d="M61.5202 1.89636L70.2002 21.6775L68.1943 21.3137L76.4367 1.89636H80.5578L68.9237 26.904L57.3261 1.89636H61.5202Z" fill="black"/>
<path d="M86.6393 17.8404L76.8652 1.89636H81.2052L89.0464 15.0948L87.9522 15.161L95.7205 1.89636H100.024L90.1769 17.8404V25.8124H86.6393V17.8404Z" fill="black"/>
</svg>
